<?xml version="1.0" encoding="iso-8859-1"?>
<!-- Generator: Adobe Illustrator 19.0.0, SVG Export Plug-In . SVG Version: 6.00 Build 0)  -->
<svg version="1.1" id="Layer_1" xmlns="http://www.w3.org/2000/svg" xmlns:xlink="http://www.w3.org/1999/xlink" x="0px" y="0px"
	 viewBox="0 0 512 512" style="enable-background:new 0 0 512 512;" xml:space="preserve">
<g>
	<path style="fill:#FF6243;" d="M116.364,62.666L116.364,62.666C52.199,62.666,0,114.873,0,179.044
		c0,104.464,99.398,170.637,103.629,173.404c3.868,2.529,8.301,3.792,12.733,3.792h0.002c4.433,0,8.864-1.264,12.732-3.792
		c0.554-0.361,13.745-9.038,30.29-24.452c33.458-31.167,73.342-82.308,73.342-148.952
		C232.727,114.873,180.527,62.668,116.364,62.666z M116.364,210.06c-17.136,0-31.032-13.892-31.032-31.03S99.227,148,116.364,148
		c17.135,0,31.029,13.894,31.029,31.03C147.392,196.168,133.499,210.06,116.364,210.06z"/>
	<path style="fill:#FF6243;" d="M395.635,62.666c-0.369,0-0.732,0.025-1.1,0.028c-63.656,0.596-115.262,52.548-115.262,116.35
		c0,104.464,99.398,170.637,103.629,173.404c3.548,2.32,7.571,3.561,11.633,3.753c0.366,0.017,0.732,0.039,1.1,0.039
		c4.433,0,8.865-1.264,12.733-3.792c0.554-0.361,13.745-9.038,30.29-24.452C472.117,296.829,512,245.688,512,179.044
		C512,114.873,459.798,62.666,395.635,62.666z M395.636,210.06c-0.372,0-0.732-0.042-1.102-0.056
		c-16.623-0.585-29.93-14.209-29.93-30.974s13.309-30.391,29.93-30.976c0.369-0.014,0.729-0.056,1.102-0.056
		c17.135,0,31.029,13.894,31.029,31.03C426.665,196.168,412.771,210.06,395.636,210.06z"/>
</g>
<g>
	<rect x="325.818" y="402.788" style="fill:#898890;" width="46.545" height="46.545"/>
	<rect x="387.879" y="402.788" style="fill:#898890;" width="46.545" height="46.545"/>
	<rect x="201.697" y="402.788" style="fill:#898890;" width="46.545" height="46.545"/>
	<rect x="139.636" y="402.788" style="fill:#898890;" width="46.545" height="46.545"/>
	<rect x="263.758" y="402.788" style="fill:#898890;" width="46.545" height="46.545"/>
	<rect x="77.576" y="402.788" style="fill:#898890;" width="46.545" height="46.545"/>
</g>
<g>
	<path style="fill:#FF0C38;" d="M85.332,179.032c0-17.138,13.895-31.03,31.032-31.03V62.668h-0.002
		C52.199,62.666,0,114.873,0,179.044c0,104.464,99.398,170.637,103.629,173.404c3.868,2.529,8.301,3.792,12.733,3.792h0.002V210.059
		C99.227,210.06,85.332,196.168,85.332,179.032z"/>
	<path style="fill:#FF0C38;" d="M364.604,179.032c0-16.766,13.309-30.391,29.93-30.976V62.694
		c-63.656,0.596-115.262,52.548-115.262,116.35c0,104.464,99.398,170.637,103.629,173.404c3.548,2.32,7.571,3.561,11.633,3.753
		V210.005C377.913,209.42,364.604,195.796,364.604,179.032z"/>
</g>
<g>
</g>
<g>
</g>
<g>
</g>
<g>
</g>
<g>
</g>
<g>
</g>
<g>
</g>
<g>
</g>
<g>
</g>
<g>
</g>
<g>
</g>
<g>
</g>
<g>
</g>
<g>
</g>
<g>
</g>
</svg>
